<svg id="visual" viewBox="0 0 900 600" width="900" height="600" xmlns="http://www.w3.org/2000/svg" xmlns:xlink="http://www.w3.org/1999/xlink" version="1.1"><path d="M0 157L18.8 153C37.7 149 75.3 141 112.8 130C150.3 119 187.7 105 225.2 107C262.7 109 300.3 127 337.8 128C375.3 129 412.7 113 450.2 117C487.7 121 525.3 145 562.8 146C600.3 147 637.7 125 675.2 110C712.7 95 750.3 87 787.8 98C825.3 109 862.7 139 881.3 154L900 169L900 0L881.3 0C862.7 0 825.3 0 787.8 0C750.3 0 712.7 0 675.2 0C637.7 0 600.3 0 562.8 0C525.3 0 487.7 0 450.2 0C412.7 0 375.3 0 337.8 0C300.3 0 262.7 0 225.2 0C187.7 0 150.3 0 112.8 0C75.3 0 37.7 0 18.8 0L0 0Z" fill="#cfdef7"></path><path d="M0 199L18.8 203C37.7 207 75.3 215 112.8 207C150.3 199 187.7 175 225.2 178C262.7 181 300.3 211 337.8 215C375.3 219 412.7 197 450.2 195C487.7 193 525.3 211 562.8 216C600.3 221 637.7 213 675.2 205C712.7 197 750.3 189 787.8 195C825.3 201 862.7 221 881.3 231L900 241L900 167L881.3 152C862.7 137 825.3 107 787.8 96C750.3 85 712.7 93 675.2 108C637.7 123 600.3 145 562.8 144C525.3 143 487.7 119 450.2 115C412.7 111 375.3 127 337.8 126C300.3 125 262.7 107 225.2 105C187.7 103 150.3 117 112.8 128C75.3 139 37.7 147 18.8 151L0 155Z" fill="#c3d6f5"></path><path d="M0 379L18.8 374C37.7 369 75.3 359 112.8 344C150.3 329 187.7 309 225.2 314C262.7 319 300.3 349 337.8 339C375.3 329 412.7 279 450.2 273C487.7 267 525.3 305 562.8 324C600.3 343 637.7 343 675.2 336C712.7 329 750.3 315 787.8 322C825.3 329 862.7 357 881.3 371L900 385L900 239L881.3 229C862.7 219 825.3 199 787.8 193C750.3 187 712.7 195 675.2 203C637.7 211 600.3 219 562.8 214C525.3 209 487.7 191 450.2 193C412.7 195 375.3 217 337.8 213C300.3 209 262.7 179 225.2 176C187.7 173 150.3 197 112.8 205C75.3 213 37.7 205 18.8 201L0 197Z" fill="#b7cff3"></path><path d="M0 559L18.8 547C37.7 535 75.3 511 112.8 510C150.3 509 187.7 531 225.2 533C262.7 535 300.3 517 337.8 509C375.3 501 412.7 503 450.2 505C487.7 507 525.3 509 562.8 511C600.3 513 637.7 515 675.2 516C712.7 517 750.3 517 787.8 518C825.3 519 862.7 521 881.3 522L900 523L900 383L881.3 369C862.7 355 825.3 327 787.8 320C750.3 313 712.7 327 675.2 334C637.7 341 600.3 341 562.8 322C525.3 303 487.7 265 450.2 271C412.7 277 375.3 327 337.8 337C300.3 347 262.7 317 225.2 312C187.7 307 150.3 327 112.8 342C75.3 357 37.7 367 18.8 372L0 377Z" fill="#abc7f1"></path><path d="M0 601L18.8 601C37.7 601 75.3 601 112.8 601C150.3 601 187.7 601 225.2 601C262.7 601 300.3 601 337.8 601C375.3 601 412.7 601 450.2 601C487.7 601 525.3 601 562.8 601C600.3 601 637.7 601 675.2 601C712.7 601 750.3 601 787.8 601C825.3 601 862.7 601 881.3 601L900 601L900 521L881.3 520C862.7 519 825.3 517 787.8 516C750.3 515 712.7 515 675.2 514C637.7 513 600.3 511 562.8 509C525.3 507 487.7 505 450.2 503C412.7 501 375.3 499 337.8 507C300.3 515 262.7 533 225.2 531C187.7 529 150.3 507 112.8 508C75.3 509 37.7 533 18.8 545L0 557Z" fill="#9fbfef"></path></svg>